<?xml version="1.0" standalone="no"?>
<!DOCTYPE svg PUBLIC "-//W3C//DTD SVG 20010904//EN"
 "http://www.w3.org/TR/2001/REC-SVG-20010904/DTD/svg10.dtd">
<svg version="1.0" xmlns="http://www.w3.org/2000/svg"
 width="3500.000000pt" height="1440.000000pt" viewBox="0 0 3500.000000 1440.000000"
 preserveAspectRatio="xMidYMid meet">

<g transform="translate(0.000000,1440.000000) scale(0.100000,-0.100000)"
fill="#000000" stroke="none">
<path d="M0 7200 l0 -7200 17500 0 17500 0 0 7200 0 7200 -17500 0 -17500 0 0
-7200z m18140 445 l0 -2425 580 0 580 0 0 -400 0 -400 -1612 2 -1613 3 0 395
0 395 583 3 582 2 0 2030 0 2030 -466 2 -466 3 -200 380 c-110 209 -202 386
-205 393 -4 9 223 12 1116 12 l1121 0 0 -2425z m6100 -400 l0 -2825 -450 0
-450 0 0 152 0 151 -67 -65 c-152 -145 -356 -248 -596 -300 -89 -19 -131 -22
-327 -22 -258 1 -377 17 -572 80 -243 78 -422 188 -609 374 -298 297 -460 658
-536 1190 -13 99 -17 193 -17 445 0 338 12 466 64 692 151 647 556 1127 1107
1312 185 61 291 76 558 76 191 0 258 -4 330 -18 242 -49 445 -148 609 -298
l56 -51 2 761 3 762 440 203 c242 112 443 204 448 205 4 1 7 -1270 7 -2824z
m-17640 2649 c0 -3 95 -725 210 -1603 188 -1423 245 -1845 268 -1975 8 -43
-18 -168 463 2227 l272 1357 254 0 c139 0 253 -3 253 -6 0 -5 629 -3064 705
-3429 18 -88 33 -155 34 -150 1 6 12 73 25 150 13 77 108 871 211 1765 102
894 188 1635 191 1648 l4 22 440 0 c312 0 440 -3 440 -11 0 -15 -799 -5419
-805 -5447 l-5 -22 -365 0 c-200 0 -366 4 -369 8 -11 18 -707 3373 -734 3534
-15 93 -30 168 -33 168 -4 0 -10 -26 -14 -57 -4 -31 -22 -131 -41 -222 -19
-91 -183 -893 -365 -1781 -181 -888 -332 -1623 -335 -1632 -5 -17 -31 -18
-369 -18 -200 0 -366 4 -369 9 -5 7 -806 5440 -806 5463 0 4 189 8 420 8 231
0 420 -3 420 -6z m6692 -1399 c545 -64 904 -279 1100 -661 83 -161 132 -330
160 -554 10 -82 13 -402 13 -1480 l0 -1375 -437 -3 -438 -2 0 155 c0 85 -3
155 -6 155 -3 0 -29 -21 -58 -46 -111 -101 -290 -204 -457 -262 -418 -147
-1000 -117 -1381 73 -359 179 -576 453 -663 840 -22 96 -31 426 -16 537 40
275 136 475 315 654 240 238 603 397 1020 445 131 15 520 6 646 -15 195 -33
381 -86 517 -147 35 -16 69 -29 74 -29 12 0 11 176 -1 316 -29 327 -183 516
-485 595 -114 30 -393 37 -562 15 -312 -41 -657 -169 -927 -343 -38 -24 -72
-41 -76 -36 -17 20 -271 726 -263 733 17 16 191 113 283 157 295 142 620 237
930 272 52 6 109 13 125 15 90 10 473 5 587 -9z m14306 4 c420 -46 771 -203
1045 -468 383 -370 576 -862 594 -1517 16 -573 -98 -1039 -344 -1406 -344
-514 -876 -778 -1568 -778 -518 0 -957 151 -1281 442 -344 307 -548 731 -616
1278 -20 161 -17 624 5 775 42 285 106 498 217 720 269 538 739 864 1368 950
120 16 449 19 580 4z"/>
<path d="M22283 7645 c-382 -69 -631 -341 -722 -790 -56 -274 -54 -586 5 -853
55 -246 151 -430 301 -573 121 -116 238 -178 407 -216 100 -23 362 -23 477 0
255 51 451 169 571 346 17 24 18 84 18 871 l0 846 -65 71 c-154 169 -349 267
-600 303 -96 13 -305 11 -392 -5z"/>
<path d="M12678 6210 c-304 -27 -561 -152 -651 -318 -73 -134 -75 -318 -6
-454 27 -54 118 -149 179 -188 65 -42 193 -87 297 -105 115 -20 362 -20 484 1
236 40 470 155 648 319 l61 57 0 258 0 258 -77 32 c-118 49 -173 67 -296 94
-200 44 -454 62 -639 46z"/>
<path d="M27119 7645 c-413 -78 -681 -386 -777 -890 -25 -131 -24 -542 1 -675
48 -255 147 -458 301 -619 120 -124 235 -191 412 -237 87 -23 119 -27 264 -27
183 -1 268 13 401 64 200 77 381 256 479 473 42 92 79 217 102 346 31 167 30
513 -1 684 -52 290 -157 505 -326 664 -67 63 -105 90 -187 131 -145 72 -236
92 -433 97 -112 2 -183 -1 -236 -11z"/>
</g>
</svg>
